<svg id="svg" xmlns="http://www.w3.org/2000/svg" xmlns:xlink="http://www.w3.org/1999/xlink" width="400" height="400" viewBox="0, 0, 400,400"><g id="svgg"><path id="path0" d="M345.139 45.105 L 312.500 77.709 312.500 52.917 C 312.500 29.167,312.434 28.059,310.938 26.563 C 308.548 24.173,46.020 24.094,38.352 26.480 C 26.839 30.063,17.111 39.956,13.739 51.509 C 11.848 57.986,11.848 354.514,13.739 360.991 C 17.111 372.544,26.839 382.437,38.352 386.020 C 46.020 388.406,308.548 388.327,310.938 385.938 C 312.481 384.394,312.500 383.333,312.500 297.119 L 312.500 209.864 330.310 191.846 C 355.170 166.696,362.014 157.873,371.558 138.672 C 384.821 111.991,387.489 97.048,387.495 49.414 C 387.501 10.900,387.779 12.500,381.076 12.500 L 377.778 12.500 345.139 45.105 M374.249 74.609 C 372.698 100.845,366.889 120.977,355.077 141.050 C 346.843 155.044,341.968 160.573,306.369 196.289 L 271.524 231.250 253.147 231.250 L 234.770 231.250 285.544 180.472 L 336.318 129.693 331.438 124.813 L 326.557 119.932 275.778 170.706 L 225.000 221.480 225.000 203.124 L 225.000 184.769 299.805 109.959 L 374.609 35.150 374.845 47.849 C 374.974 54.833,374.706 66.875,374.249 74.609 M300.000 63.858 L 300.000 90.216 256.250 133.991 L 212.500 177.767 212.500 205.869 L 212.500 233.972 194.343 252.142 L 176.186 270.311 181.063 275.188 L 185.939 280.064 204.108 261.907 L 222.278 243.750 250.334 243.750 L 278.390 243.750 289.195 233.044 L 300.000 222.338 300.000 267.419 L 300.000 312.500 171.460 312.500 C 26.630 312.500,39.219 311.978,29.190 318.394 L 25.000 321.074 25.006 192.764 C 25.013 46.646,24.653 54.226,31.982 45.878 C 39.516 37.298,32.646 37.696,175.195 37.591 L 300.000 37.500 300.000 63.858 M146.875 57.846 C 99.795 69.977,83.895 128.496,118.324 162.926 C 157.964 202.565,225.000 174.805,225.000 118.750 C 225.000 77.696,186.455 47.647,146.875 57.846 M174.521 70.778 C 206.210 78.495,221.095 113.891,205.171 143.662 L 203.755 146.308 200.901 141.073 C 197.654 135.116,191.115 128.174,185.938 125.188 C 184.004 124.072,182.296 123.066,182.141 122.953 C 181.987 122.839,182.610 121.695,183.525 120.409 C 192.351 108.014,186.397 88.167,172.267 82.880 C 148.858 74.122,127.260 100.446,141.475 120.409 C 142.390 121.695,143.013 122.839,142.859 122.953 C 142.704 123.066,140.996 124.072,139.063 125.188 C 133.885 128.174,127.346 135.116,124.099 141.073 L 121.245 146.308 119.829 143.662 C 98.869 104.477,131.939 60.407,174.521 70.778 M168.562 96.090 C 178.724 102.286,174.379 117.963,162.500 117.963 C 155.834 117.963,150.787 112.916,150.787 106.250 C 150.787 104.117,151.398 101.733,152.340 100.188 C 154.510 96.628,158.269 94.537,162.500 94.537 C 164.633 94.537,167.017 95.148,168.562 96.090 M174.547 134.243 C 182.546 137.832,188.409 144.315,191.325 152.796 L 192.916 157.422 191.185 158.877 C 177.110 170.709,150.701 170.885,134.227 159.257 L 132.127 157.774 133.309 153.692 C 138.248 136.642,158.552 127.066,174.547 134.243 M106.250 212.500 L 106.250 218.750 153.125 218.750 L 200.000 218.750 200.000 212.500 L 200.000 206.250 153.125 206.250 L 106.250 206.250 106.250 212.500 M106.250 243.750 L 106.250 250.000 146.875 250.000 L 187.500 250.000 187.500 243.750 L 187.500 237.500 146.875 237.500 L 106.250 237.500 106.250 243.750 M106.250 275.000 L 106.250 281.250 137.500 281.250 L 168.750 281.250 168.750 275.000 L 168.750 268.750 137.500 268.750 L 106.250 268.750 106.250 275.000 M300.000 350.000 L 300.000 375.000 175.977 374.994 C 94.355 374.990,50.251 374.712,46.976 374.181 C 19.208 369.675,18.565 330.468,46.183 325.881 C 48.517 325.494,105.974 325.142,175.195 325.091 L 300.000 325.000 300.000 350.000 " stroke="none" fill="#000000" fill-rule="evenodd"></path></g></svg>