<svg id="svg" xmlns="http://www.w3.org/2000/svg" xmlns:xlink="http://www.w3.org/1999/xlink" width="400" height="400" viewBox="0, 0, 400,400"><g id="svgg"><path id="path0" d="M201.758 1.379 C 201.006 2.137,198.123 6.988,195.352 12.160 L 190.313 21.563 180.910 26.602 C 169.584 32.671,168.750 33.419,168.750 37.500 C 168.750 41.581,169.584 42.329,180.910 48.398 L 190.313 53.437 195.352 62.840 C 201.421 74.166,202.169 75.000,206.250 75.000 C 210.331 75.000,211.079 74.166,217.148 62.840 L 222.187 53.437 231.590 48.398 C 242.916 42.329,243.750 41.581,243.750 37.500 C 243.750 33.419,242.916 32.671,231.590 26.602 L 222.187 21.563 217.148 12.160 C 210.431 -0.375,206.339 -3.241,201.758 1.379 M31.590 13.977 C 9.787 23.880,16.706 56.250,40.625 56.250 C 64.544 56.250,71.463 23.880,49.660 13.977 C 45.319 12.005,35.931 12.005,31.590 13.977 M209.167 25.636 C 212.042 30.865,212.953 31.759,218.554 34.848 C 220.809 36.092,222.655 37.285,222.655 37.500 C 222.655 37.715,220.809 38.908,218.554 40.152 C 212.953 43.241,212.042 44.135,209.167 49.364 C 206.120 54.907,206.380 54.907,203.333 49.364 C 200.458 44.135,199.547 43.241,193.946 40.152 C 188.902 37.370,188.883 37.608,194.386 34.583 C 199.615 31.708,200.509 30.797,203.598 25.196 C 206.380 20.152,206.142 20.133,209.167 25.636 M93.750 31.250 L 93.750 37.500 100.000 37.500 L 106.250 37.500 106.250 31.250 L 106.250 25.000 100.000 25.000 L 93.750 25.000 93.750 31.250 M331.250 31.250 L 331.250 37.500 337.500 37.500 L 343.750 37.500 343.750 31.250 L 343.750 25.000 337.500 25.000 L 331.250 25.000 331.250 31.250 M46.563 28.438 C 50.331 32.206,50.331 36.544,46.563 40.312 C 41.053 45.822,32.031 42.136,32.031 34.375 C 32.031 29.676,35.926 25.781,40.625 25.781 C 43.315 25.781,44.385 26.260,46.563 28.438 M289.503 54.805 C 264.415 57.014,233.402 67.788,211.729 81.824 L 205.881 85.611 196.104 80.758 C 162.478 64.066,134.708 57.694,87.333 55.803 C 64.305 54.884,62.500 55.598,62.500 65.625 C 62.500 69.063,62.379 71.875,62.232 71.875 C 62.084 71.875,59.920 71.172,57.422 70.313 C 43.441 65.502,43.750 64.683,43.750 106.569 L 43.750 141.263 21.875 184.572 L -0.000 227.880 -0.000 313.940 L 0.000 400.000 6.250 400.000 L 12.500 400.000 12.500 317.286 L 12.500 234.573 49.023 204.438 C 88.988 171.463,86.562 172.928,86.664 181.711 C 86.837 196.752,82.994 203.090,61.333 223.484 C 41.045 242.586,42.969 239.445,42.969 253.474 C 42.969 267.040,43.441 268.025,50.622 269.438 C 59.383 271.161,65.628 277.164,68.585 286.703 C 70.220 291.978,70.425 312.849,68.906 319.450 C 68.373 321.769,68.054 323.783,68.198 323.928 C 68.543 324.272,80.704 326.596,80.908 326.357 C 81.649 325.487,82.997 315.972,83.368 308.984 C 83.882 299.323,83.931 299.247,89.648 299.231 L 93.750 299.219 93.747 304.492 C 93.733 327.995,84.028 347.836,69.136 354.804 C 61.433 358.409,61.719 357.428,61.719 380.252 L 61.719 400.000 68.359 400.000 L 75.000 400.000 75.000 383.668 L 75.000 367.337 79.492 364.806 C 95.821 355.608,107.031 331.200,107.031 304.847 L 107.031 299.888 111.523 300.404 C 128.337 302.339,151.311 308.826,167.856 316.310 C 181.144 322.322,181.250 322.422,181.250 328.959 C 181.250 337.846,180.251 337.500,205.911 337.500 C 232.274 337.500,232.031 337.605,232.031 326.206 L 232.031 321.396 239.356 316.551 C 254.283 306.680,268.694 301.564,289.258 298.834 L 292.969 298.342 292.984 305.226 C 293.045 332.367,304.530 356.841,321.161 365.268 L 325.000 367.214 325.000 383.607 L 325.000 400.000 331.250 400.000 L 337.500 400.000 337.500 380.142 C 337.500 356.698,337.953 358.419,330.897 355.071 C 315.573 347.799,306.250 328.557,306.250 304.201 L 306.250 298.360 310.742 298.594 L 315.234 298.828 316.166 309.183 C 317.840 327.796,317.290 327.006,327.147 324.960 L 331.436 324.069 330.946 320.824 C 326.176 289.241,331.818 273.162,349.050 269.231 C 356.234 267.593,356.250 267.555,356.250 252.988 L 356.250 240.650 354.102 238.386 C 352.920 237.141,345.801 230.418,338.281 223.446 C 318.878 205.455,316.452 202.240,314.099 191.406 C 313.016 186.422,313.273 174.455,314.453 174.912 C 314.883 175.078,331.490 188.613,351.358 204.990 L 387.481 234.766 387.491 317.383 L 387.500 400.000 393.750 400.000 L 400.000 400.000 400.000 314.450 L 400.000 228.901 378.125 185.156 L 356.250 141.412 356.250 106.643 C 356.250 67.247,356.493 68.750,350.122 68.750 C 348.471 68.750,345.076 69.453,342.578 70.313 C 340.080 71.172,337.916 71.875,337.768 71.875 C 337.621 71.875,337.500 69.215,337.500 65.964 C 337.500 59.011,336.831 57.439,333.404 56.340 C 326.884 54.249,304.645 53.471,289.503 54.805 M324.731 68.220 C 324.885 68.375,324.921 90.316,324.811 116.979 L 324.609 165.457 318.905 160.854 C 307.037 151.276,301.016 157.248,300.176 179.430 C 299.481 197.780,304.094 209.362,317.243 222.281 L 325.000 229.903 325.000 245.438 L 325.000 260.974 313.477 260.467 C 280.422 259.015,243.176 268.575,215.817 285.532 L 212.494 287.592 212.692 192.469 L 212.891 97.346 219.141 93.171 C 227.023 87.907,241.803 80.588,251.953 76.923 C 264.890 72.252,276.633 69.691,294.531 67.636 C 297.655 67.277,324.303 67.793,324.731 68.220 M98.047 69.554 C 135.013 71.750,159.921 78.030,189.648 92.649 L 200.000 97.740 200.000 193.348 L 200.000 288.955 190.430 284.403 C 162.136 270.945,125.300 262.500,94.896 262.500 C 91.819 262.500,86.084 262.272,82.151 261.992 L 75.000 261.485 75.000 245.426 L 75.000 229.367 82.728 221.910 C 98.500 206.692,103.844 185.816,97.283 165.048 C 93.967 154.550,89.741 153.375,81.101 160.547 C 78.253 162.910,75.716 164.844,75.462 164.844 C 75.208 164.844,75.000 143.223,75.000 116.797 L 75.000 68.750 79.883 68.758 C 82.568 68.762,90.742 69.120,98.047 69.554 M60.619 85.635 L 62.500 86.107 62.500 130.863 L 62.500 175.619 59.738 178.044 C 58.220 179.378,56.813 180.469,56.613 180.469 C 56.414 180.469,56.250 158.810,56.250 132.338 C 56.250 88.629,56.364 84.252,57.494 84.685 C 58.179 84.948,59.585 85.375,60.619 85.635 M343.750 132.849 L 343.750 181.324 340.625 178.812 L 337.500 176.301 337.500 131.232 L 337.500 86.164 340.039 85.349 C 341.436 84.901,342.842 84.499,343.164 84.455 C 343.486 84.411,343.750 106.188,343.750 132.849 M290.210 100.098 C 268.936 101.123,247.498 106.709,228.711 116.122 C 220.846 120.062,221.002 119.670,224.677 126.240 C 228.017 132.213,226.682 132.077,236.263 127.424 C 256.036 117.821,275.992 113.347,300.438 113.038 L 312.097 112.891 312.945 106.760 C 313.550 102.382,313.552 100.548,312.951 100.347 C 311.177 99.753,299.921 99.630,290.210 100.098 M92.713 106.055 C 92.522 106.377,92.764 109.277,93.253 112.500 L 94.141 118.359 109.766 118.831 C 132.943 119.531,152.201 124.107,170.365 133.230 C 174.186 135.149,177.641 136.719,178.042 136.719 C 178.860 136.719,184.375 127.205,184.375 125.795 C 184.375 123.428,157.853 112.704,143.987 109.465 C 129.376 106.051,94.108 103.705,92.713 106.055 M293.750 137.500 L 293.750 143.750 300.000 143.750 L 306.250 143.750 306.250 137.500 L 306.250 131.250 300.000 131.250 L 293.750 131.250 293.750 137.500 M92.713 137.305 C 92.522 137.627,92.764 140.527,93.253 143.750 L 94.141 149.609 109.766 150.081 C 132.943 150.781,152.201 155.357,170.365 164.480 C 174.186 166.399,177.641 167.969,178.042 167.969 C 178.860 167.969,184.375 158.455,184.375 157.045 C 184.375 154.678,157.853 143.954,143.987 140.715 C 129.376 137.301,94.108 134.955,92.713 137.305 M0.000 154.297 L 0.000 160.938 6.250 160.938 L 12.500 160.938 12.500 154.297 L 12.500 147.656 6.250 147.656 L 0.000 147.656 0.000 154.297 M43.750 181.582 L 43.750 191.290 35.140 198.416 L 26.531 205.542 34.937 188.708 C 39.560 179.450,43.434 171.875,43.546 171.875 C 43.658 171.875,43.750 176.243,43.750 181.582 M365.199 188.965 C 372.418 203.414,373.230 205.414,371.225 203.809 C 369.950 202.788,366.074 199.668,362.610 196.875 L 356.313 191.797 356.282 181.706 C 356.264 176.156,356.386 171.761,356.553 171.940 C 356.720 172.119,360.611 179.780,365.199 188.965 M282.813 230.968 C 281.738 231.126,278.223 231.629,275.000 232.087 C 257.448 234.579,221.875 247.187,221.875 250.915 C 221.875 252.211,227.308 261.719,228.049 261.719 C 228.395 261.719,232.684 259.830,237.581 257.520 C 256.926 248.398,273.051 244.688,296.870 243.878 L 312.099 243.359 312.932 237.331 C 313.621 232.343,313.577 231.231,312.678 230.886 C 311.494 230.432,285.988 230.502,282.813 230.968 M62.500 250.328 L 62.500 259.249 59.375 258.022 L 56.250 256.794 56.250 251.845 C 56.250 247.363,59.525 241.728,62.305 241.427 C 62.412 241.416,62.500 245.421,62.500 250.328 M343.750 252.027 C 343.750 256.483,343.603 256.899,341.869 257.334 C 340.835 257.593,339.429 258.021,338.744 258.283 C 337.651 258.703,337.500 257.687,337.500 249.925 L 337.500 241.089 340.625 244.141 C 343.605 247.051,343.750 247.416,343.750 252.027 M320.724 274.370 C 320.903 274.549,320.211 277.094,319.186 280.026 L 317.323 285.358 303.779 285.214 C 264.097 284.791,218.767 304.025,218.753 321.289 L 218.750 325.000 206.250 325.000 L 193.750 325.000 193.750 322.316 C 193.750 315.737,191.200 312.830,180.859 307.625 C 153.226 293.713,124.118 286.574,94.336 286.402 C 83.952 286.342,82.028 286.148,82.013 285.158 C 82.003 284.512,81.157 281.948,80.133 279.458 L 78.272 274.933 88.159 275.395 C 135.171 277.596,162.314 284.387,197.168 302.665 C 207.064 307.855,206.088 307.945,217.188 300.812 C 240.997 285.511,263.943 277.218,290.625 274.272 C 296.859 273.583,320.013 273.659,320.724 274.370 M131.590 320.227 C 109.787 330.130,116.706 362.500,140.625 362.500 C 164.544 362.500,171.463 330.130,149.660 320.227 C 145.319 318.255,135.931 318.255,131.590 320.227 M264.258 326.379 C 263.506 327.137,260.623 331.988,257.852 337.160 L 252.813 346.563 243.410 351.602 C 232.084 357.671,231.250 358.419,231.250 362.500 C 231.250 366.581,232.084 367.329,243.410 373.398 L 252.813 378.437 257.852 387.840 C 263.921 399.166,264.669 400.000,268.750 400.000 C 272.831 400.000,273.579 399.166,279.648 387.840 L 284.687 378.437 294.090 373.398 C 305.416 367.329,306.250 366.581,306.250 362.500 C 306.250 358.419,305.416 357.671,294.090 351.602 L 284.687 346.563 279.648 337.160 C 273.579 325.834,272.831 325.000,268.750 325.000 C 266.801 325.000,265.110 325.519,264.258 326.379 M146.563 334.688 C 152.072 340.197,148.386 349.219,140.625 349.219 C 137.935 349.219,136.865 348.740,134.688 346.563 C 132.510 344.385,132.031 343.315,132.031 340.625 C 132.031 337.935,132.510 336.865,134.688 334.688 C 136.865 332.510,137.935 332.031,140.625 332.031 C 143.315 332.031,144.385 332.510,146.563 334.688 M271.667 350.636 C 274.542 355.865,275.453 356.759,281.054 359.848 C 283.309 361.092,285.155 362.285,285.155 362.500 C 285.155 362.715,283.309 363.908,281.054 365.152 C 275.453 368.241,274.542 369.135,271.667 374.364 C 270.294 376.862,268.981 378.906,268.750 378.906 C 268.519 378.906,267.206 376.862,265.833 374.364 C 262.958 369.135,262.047 368.241,256.446 365.152 C 251.402 362.370,251.383 362.608,256.886 359.583 C 262.115 356.708,263.009 355.797,266.098 350.196 C 268.880 345.152,268.642 345.133,271.667 350.636 M181.250 368.750 L 181.250 375.000 187.500 375.000 L 193.750 375.000 193.750 368.750 L 193.750 362.500 187.500 362.500 L 181.250 362.500 181.250 368.750 " stroke="none" fill="#000000" fill-rule="evenodd"></path></g></svg>