<svg id="svg" xmlns="http://www.w3.org/2000/svg" xmlns:xlink="http://www.w3.org/1999/xlink" width="400" height="400" viewBox="0, 0, 400,400"><g id="svgg"><path id="path0" d="M248.582 1.418 C 247.802 2.198,244.230 9.933,240.646 18.606 C 237.061 27.279,233.887 34.375,233.593 34.375 C 233.298 34.375,230.981 33.658,228.443 32.782 C 182.279 16.848,124.532 30.923,88.012 67.009 C 21.147 133.079,38.358 249.129,121.180 290.651 C 123.926 292.028,126.297 293.266,126.449 293.404 C 126.602 293.541,123.842 300.613,120.316 309.118 C 113.217 326.245,112.694 328.982,115.981 331.809 C 120.183 335.423,124.539 333.690,127.283 327.312 C 128.340 324.854,129.385 323.454,129.988 323.685 C 138.141 326.814,159.498 332.011,164.258 332.025 L 166.406 332.031 166.406 346.094 L 166.406 360.156 148.242 360.161 C 121.712 360.167,122.533 359.727,112.810 379.158 C 105.623 393.519,105.160 395.708,108.683 398.633 C 111.435 400.918,262.552 400.729,264.844 398.437 C 267.694 395.587,266.895 392.365,259.855 378.312 C 250.409 359.457,251.906 360.239,225.177 360.191 L 206.214 360.156 206.427 346.319 L 206.641 332.482 214.453 331.193 C 306.959 315.938,368.639 226.348,350.334 133.828 C 340.625 84.760,307.300 40.396,263.805 18.637 C 260.294 16.880,257.290 15.323,257.129 15.176 C 256.968 15.029,257.407 13.481,258.105 11.735 C 261.511 3.223,254.439 -4.439,248.582 1.418 M269.922 37.784 C 324.630 72.589,351.485 140.613,335.504 203.906 C 314.043 288.902,226.013 338.807,142.188 313.498 C 133.664 310.925,133.965 311.425,136.781 304.512 L 139.201 298.569 143.453 300.032 C 179.908 312.575,226.212 307.078,259.766 286.226 C 352.000 228.904,348.244 95.257,252.930 43.021 C 246.091 39.273,246.316 39.700,248.513 34.635 C 249.413 32.558,250.464 30.057,250.847 29.076 L 251.543 27.293 257.608 30.551 C 260.943 32.342,266.484 35.598,269.922 37.784 M211.328 42.152 C 241.570 48.649,270.345 66.556,287.334 89.453 C 292.010 95.756,292.015 95.772,289.544 96.392 C 286.008 97.279,283.157 100.950,280.470 108.074 C 277.113 116.978,276.264 117.564,267.614 116.953 C 253.551 115.961,245.895 122.749,244.718 137.252 C 244.355 141.721,244.151 142.155,242.000 143.047 C 238.875 144.341,228.504 156.325,225.697 161.885 C 217.174 178.770,224.123 198.452,241.825 207.565 C 250.695 212.131,250.906 213.091,246.106 227.012 C 240.952 241.961,240.242 264.832,244.620 274.925 C 245.441 276.818,246.021 278.446,245.908 278.544 C 243.272 280.826,226.060 287.446,216.797 289.741 C 118.166 314.174,31.979 216.427,68.279 121.303 C 71.893 111.833,82.412 92.188,83.869 92.188 C 83.938 92.188,84.022 94.912,84.056 98.242 C 84.135 106.086,90.017 116.406,94.409 116.406 C 94.769 116.406,95.498 118.348,96.029 120.721 C 97.564 127.577,100.606 130.786,112.322 137.910 C 120.642 142.969,123.062 144.854,124.861 147.676 L 127.091 151.172 123.555 155.795 C 119.543 161.041,114.840 173.366,114.885 178.516 C 114.925 183.122,116.293 186.182,122.516 195.582 C 129.160 205.618,129.046 204.370,124.509 217.372 C 117.304 238.023,118.664 263.509,127.283 269.317 C 135.164 274.629,142.513 270.195,146.894 257.483 L 149.438 250.103 153.430 249.163 C 162.050 247.132,165.602 244.613,171.502 236.345 C 174.825 231.688,175.312 231.304,177.216 231.838 C 185.381 234.129,189.654 231.232,197.803 217.879 C 205.147 205.847,200.252 190.097,187.405 184.423 C 183.876 182.864,183.662 182.560,177.832 170.775 C 169.516 153.965,168.039 152.746,147.032 145.351 C 138.074 142.197,137.270 141.744,135.143 138.652 C 133.888 136.828,131.797 134.441,130.497 133.347 C 129.041 132.122,128.307 130.904,128.585 130.179 C 130.321 125.654,139.844 125.268,139.844 129.722 C 139.844 136.268,149.430 136.859,152.711 130.515 C 153.608 128.779,158.620 125.791,176.339 116.430 L 198.828 104.549 204.042 105.871 C 217.542 109.292,226.711 97.187,219.141 85.938 C 217.637 83.703,216.406 81.731,216.406 81.557 C 216.406 81.382,218.779 81.456,221.680 81.720 C 230.807 82.553,237.967 70.965,231.748 65.425 C 227.778 61.889,198.737 52.434,191.699 52.386 C 183.283 52.330,180.469 51.729,180.469 49.989 C 180.469 47.351,177.739 45.259,171.875 43.405 L 166.016 41.552 169.141 41.036 C 170.859 40.753,172.793 40.389,173.438 40.227 C 177.375 39.241,204.092 40.598,211.328 42.152 M138.948 53.025 C 142.581 58.921,148.095 60.073,156.250 56.641 C 162.702 53.925,165.199 53.984,164.497 56.836 C 162.666 64.270,163.051 66.624,166.379 68.345 C 169.758 70.093,171.719 69.808,174.339 67.187 L 176.683 64.844 185.802 65.293 C 191.957 65.597,196.352 66.251,199.321 67.307 L 203.720 68.871 201.908 70.825 C 197.839 75.216,198.476 80.567,203.924 87.763 L 207.812 92.899 204.589 91.762 C 198.609 89.652,197.755 89.960,172.113 103.474 L 147.742 116.318 143.422 114.800 C 134.002 111.489,125.007 113.665,118.984 120.712 L 115.790 124.448 113.065 122.764 C 109.999 120.869,108.918 118.645,108.178 112.704 C 107.665 108.585,104.652 104.688,101.980 104.688 C 97.949 104.688,97.324 102.482,97.518 88.964 L 97.701 76.172 101.390 72.799 C 109.423 65.452,120.433 58.003,131.114 52.690 C 137.515 49.505,136.759 49.473,138.948 53.025 M269.922 94.418 C 260.198 100.406,257.284 110.134,264.501 112.516 C 271.078 114.687,281.585 104.081,279.439 97.437 C 278.163 93.487,273.721 92.078,269.922 94.418 M301.788 113.643 C 306.576 124.275,312.511 143.750,310.963 143.750 C 310.668 143.750,305.532 141.599,299.549 138.969 C 280.598 130.640,281.586 130.644,273.266 138.864 L 268.017 144.051 263.891 142.728 C 257.385 140.642,257.303 140.542,258.462 136.175 C 259.989 130.422,260.493 130.157,269.472 130.379 C 282.269 130.695,287.966 126.918,291.967 115.465 C 293.933 109.839,296.006 107.153,298.438 107.083 C 298.652 107.076,300.160 110.029,301.788 113.643 M312.996 159.375 C 313.153 159.375,313.281 160.583,313.281 162.058 L 313.281 164.742 308.398 164.629 C 305.713 164.567,301.332 164.814,298.663 165.179 C 293.163 165.930,293.583 166.212,284.629 155.745 L 280.586 151.019 282.557 149.048 L 284.529 147.076 298.619 153.226 C 306.369 156.608,312.839 159.375,312.996 159.375 M262.522 156.649 C 269.154 159.183,271.250 160.780,277.379 167.969 C 286.398 178.547,291.104 180.583,301.857 178.561 C 312.775 176.509,313.782 177.974,310.941 191.782 C 304.895 221.165,285.952 251.246,262.964 267.967 C 257.343 272.055,256.701 271.600,255.890 262.951 C 254.482 247.923,255.014 242.511,259.054 230.781 C 265.645 211.642,263.085 202.439,249.491 196.405 C 233.151 189.153,230.957 173.789,244.216 159.467 C 250.716 152.447,251.293 152.358,262.522 156.649 M156.019 163.163 C 159.080 164.813,161.588 168.524,167.578 180.274 L 173.828 192.532 179.549 195.580 C 189.091 200.664,190.237 204.898,184.481 213.804 L 181.411 218.553 176.057 218.211 C 169.135 217.770,167.260 218.926,161.381 227.268 C 156.351 234.407,156.167 234.543,149.200 236.292 C 139.337 238.768,139.051 239.037,135.495 249.197 L 133.710 254.297 133.652 243.441 L 133.594 232.585 137.500 221.018 C 143.321 203.783,143.154 202.328,133.713 188.011 C 130.639 183.351,128.125 179.188,128.125 178.759 C 128.125 175.718,132.665 165.991,136.020 161.844 L 139.881 157.073 147.248 159.740 C 151.300 161.206,155.247 162.747,156.019 163.163 M192.969 346.875 L 192.969 360.156 186.328 360.156 L 179.688 360.156 179.688 346.875 L 179.688 333.594 186.328 333.594 L 192.969 333.594 192.969 346.875 M245.933 380.273 L 249.287 386.719 186.759 386.719 L 124.230 386.719 127.526 380.073 L 130.822 373.427 186.700 373.628 L 242.578 373.828 245.933 380.273 " stroke="none" fill="#000000" fill-rule="evenodd"></path></g></svg>