<svg id="svg" xmlns="http://www.w3.org/2000/svg" xmlns:xlink="http://www.w3.org/1999/xlink" width="400" height="400" viewBox="0, 0, 400,400"><g id="svgg"><path id="path0" d="M93.357 12.502 L 88.716 17.192 94.442 22.957 L 100.168 28.722 96.429 33.306 C 65.373 71.376,59.774 126.526,82.519 170.313 C 100.349 204.636,134.678 229.896,171.354 235.679 C 175.723 236.368,179.736 237.048,180.273 237.191 C 180.951 237.371,181.250 239.353,181.250 243.662 L 181.250 249.873 167.383 250.132 C 144.351 250.562,132.472 259.804,131.412 278.117 C 130.876 287.373,131.085 287.500,146.959 287.500 C 158.624 287.500,159.503 287.600,159.012 288.867 C 155.335 298.353,155.335 314.147,159.012 323.633 C 159.512 324.923,157.494 325.000,123.237 325.000 L 86.932 325.000 84.677 320.117 C 81.325 312.859,81.325 299.641,84.677 292.383 L 86.932 287.500 102.841 287.500 L 118.750 287.500 118.750 281.243 L 118.750 274.985 80.273 275.188 L 41.797 275.391 38.557 280.224 C 28.789 294.794,28.789 317.706,38.557 332.276 L 41.797 337.109 50.659 337.331 C 58.667 337.531,59.472 337.682,58.999 338.893 C 53.691 352.510,56.121 372.444,64.471 383.789 L 67.203 387.500 216.414 387.500 C 364.583 387.500,365.636 387.489,367.188 385.938 C 369.645 383.480,369.116 380.051,365.039 372.000 L 361.328 364.672 361.328 356.250 L 361.328 347.828 365.039 340.500 C 371.979 326.794,370.656 325.000,353.605 325.000 C 341.998 325.000,341.547 324.940,340.450 323.242 C 334.301 313.723,334.765 298.456,341.540 287.414 C 343.973 283.448,344.406 279.321,342.642 276.907 C 341.579 275.453,340.021 275.374,305.032 275.000 L 268.531 274.609 267.552 271.292 C 263.253 256.726,253.010 250.524,232.617 250.137 L 218.750 249.873 218.750 242.639 L 218.750 235.405 223.242 234.402 C 239.551 230.762,259.165 221.061,272.944 209.821 L 277.528 206.082 283.301 211.816 L 289.074 217.551 293.938 212.688 L 298.801 207.824 293.053 202.038 L 287.305 196.252 291.699 190.813 C 297.041 184.202,297.125 185.248,290.891 180.800 L 285.689 177.088 283.665 179.367 C 282.552 180.620,280.751 182.789,279.665 184.186 L 277.689 186.727 273.668 182.621 L 269.647 178.516 274.230 172.411 C 311.381 122.922,294.131 50.511,238.566 22.706 C 205.273 6.046,163.489 9.762,133.839 32.020 L 127.734 36.603 123.629 32.582 L 119.523 28.561 122.064 26.585 C 123.461 25.499,125.630 23.698,126.883 22.585 L 129.162 20.561 125.450 15.359 C 121.008 9.134,121.912 9.206,115.332 14.547 L 109.960 18.907 104.376 13.360 C 97.694 6.723,98.978 6.823,93.357 12.502 M203.189 26.099 C 206.018 26.308,210.676 27.068,213.541 27.788 L 218.750 29.096 218.753 47.165 L 218.757 65.234 228.125 80.859 L 237.493 96.484 237.497 109.030 C 237.501 123.905,236.480 122.072,249.605 130.771 L 259.756 137.500 268.515 137.500 L 277.274 137.500 275.303 142.773 C 241.696 232.680,106.950 208.455,106.950 112.507 C 106.950 99.407,106.680 99.887,113.899 100.164 L 119.794 100.391 122.665 111.639 C 126.242 125.655,125.430 125.000,139.212 125.000 L 150.000 125.000 150.001 135.742 L 150.002 146.484 156.250 155.859 L 162.498 165.234 162.499 174.805 C 162.500 188.228,161.440 187.503,181.055 187.488 C 199.473 187.474,195.519 189.782,211.641 169.630 C 229.598 147.184,229.919 143.750,214.063 143.750 L 206.250 143.750 206.250 129.688 C 206.250 110.768,208.612 112.500,182.813 112.500 L 162.500 112.500 162.500 107.611 C 162.500 102.893,162.677 102.457,167.590 95.111 L 172.680 87.500 184.777 87.500 C 203.348 87.500,203.754 86.389,193.015 64.937 C 184.967 48.859,186.497 50.000,172.983 50.000 L 162.500 50.000 162.500 40.606 C 162.500 29.758,161.484 30.987,172.873 28.057 C 179.186 26.433,191.094 25.106,195.703 25.512 C 196.992 25.626,200.361 25.890,203.189 26.099 M239.504 38.726 C 265.504 55.049,280.427 81.978,280.458 112.631 C 280.472 125.778,280.981 125.000,272.371 125.000 L 265.222 125.000 257.611 119.910 L 250.000 114.820 249.997 102.918 L 249.993 91.016 240.625 75.391 L 231.257 59.766 231.253 47.070 C 231.251 40.088,231.548 34.375,231.912 34.375 C 232.276 34.375,235.692 36.333,239.504 38.726 M151.907 61.393 C 153.057 62.232,156.277 62.500,165.212 62.500 L 177.001 62.500 179.907 68.372 C 181.505 71.602,182.813 74.415,182.813 74.622 C 182.813 74.830,179.013 75.000,174.368 75.000 C 164.184 75.000,165.225 74.286,156.729 87.105 L 150.000 97.256 150.000 104.909 L 150.000 112.561 143.228 112.335 L 136.457 112.109 133.586 100.861 C 130.066 87.072,130.534 87.500,119.003 87.500 L 110.179 87.500 111.772 83.398 C 118.684 65.609,129.528 51.392,143.750 41.477 L 149.609 37.392 150.000 48.839 C 150.347 59.009,150.560 60.410,151.907 61.393 M116.007 48.785 C 87.594 83.972,86.010 134.778,112.192 171.142 C 145.791 217.807,212.000 226.502,257.465 190.220 L 259.853 188.315 263.937 192.451 L 268.021 196.587 260.462 202.247 C 204.819 243.911,124.586 224.571,93.366 161.968 C 74.416 123.967,79.449 76.158,105.870 43.188 L 109.764 38.328 113.850 42.363 L 117.935 46.397 116.007 48.785 M193.750 138.913 C 193.750 155.431,193.828 155.635,200.390 156.235 L 204.834 156.641 197.534 165.814 L 190.234 174.988 182.617 174.994 L 175.000 175.000 174.999 167.383 L 174.998 159.766 168.750 150.391 L 162.502 141.016 162.501 133.008 L 162.500 125.000 178.125 125.000 L 193.750 125.000 193.750 138.913 M206.250 243.750 L 206.250 250.000 200.000 250.000 L 193.750 250.000 193.750 243.750 L 193.750 237.500 200.000 237.500 L 206.250 237.500 206.250 243.750 M244.141 264.297 C 247.745 265.920,251.975 269.744,253.602 272.852 L 254.728 275.000 200.000 275.000 L 145.272 275.000 146.398 272.852 C 148.839 268.191,154.033 264.435,159.607 263.300 C 166.650 261.866,240.679 262.739,244.141 264.297 M71.512 288.867 C 67.835 298.353,67.835 314.147,71.512 323.633 C 72.002 324.896,71.185 325.000,60.737 325.000 L 49.432 325.000 47.177 320.117 C 45.105 315.630,44.922 314.506,44.922 306.250 C 44.922 297.994,45.105 296.870,47.177 292.383 L 49.432 287.500 60.737 287.500 C 71.185 287.500,72.002 287.604,71.512 288.867 M202.762 288.867 C 199.085 298.353,199.085 314.147,202.762 323.633 C 203.255 324.905,202.286 325.000,188.862 325.000 L 174.432 325.000 172.177 320.117 C 170.105 315.630,169.922 314.506,169.922 306.250 C 169.922 297.994,170.105 296.870,172.177 292.383 L 174.432 287.500 188.862 287.500 C 202.286 287.500,203.255 287.595,202.762 288.867 M325.736 288.086 C 325.711 288.408,325.050 291.133,324.267 294.141 L 322.842 299.609 268.098 299.810 L 213.353 300.011 214.379 296.685 C 214.944 294.856,216.048 292.041,216.832 290.430 L 218.258 287.500 272.020 287.500 C 301.589 287.500,325.761 287.764,325.736 288.086 M324.267 318.359 C 325.050 321.367,325.711 324.092,325.736 324.414 C 325.761 324.736,301.589 325.000,272.020 325.000 L 218.258 325.000 216.832 322.070 C 216.048 320.459,214.944 317.644,214.379 315.815 L 213.353 312.489 268.098 312.690 L 322.842 312.891 324.267 318.359 M96.512 338.867 C 92.835 348.353,92.835 364.147,96.512 373.633 C 97.002 374.896,96.185 375.000,85.737 375.000 L 74.432 375.000 72.177 370.117 C 70.105 365.630,69.922 364.506,69.922 356.250 C 69.922 347.994,70.105 346.870,72.177 342.383 L 74.432 337.500 85.737 337.500 C 96.185 337.500,97.002 337.604,96.512 338.867 M184.012 338.867 C 180.335 348.353,180.335 364.147,184.012 373.633 C 184.512 374.923,182.494 375.000,148.237 375.000 L 111.932 375.000 109.677 370.117 C 107.605 365.630,107.422 364.506,107.422 356.250 C 107.422 347.994,107.605 346.870,109.677 342.383 L 111.932 337.500 148.237 337.500 C 182.494 337.500,184.512 337.577,184.012 338.867 M227.762 338.867 C 224.085 348.353,224.085 364.147,227.762 373.633 C 228.255 374.905,227.286 375.000,213.862 375.000 L 199.432 375.000 197.177 370.117 C 195.105 365.630,194.922 364.506,194.922 356.250 C 194.922 347.994,195.105 346.870,197.177 342.383 L 199.432 337.500 213.862 337.500 C 227.286 337.500,228.255 337.595,227.762 338.867 M350.736 338.086 C 350.711 338.408,350.050 341.133,349.267 344.141 L 347.842 349.609 293.098 349.810 L 238.353 350.011 239.379 346.685 C 239.944 344.856,241.048 342.041,241.832 340.430 L 243.258 337.500 297.020 337.500 C 326.589 337.500,350.761 337.764,350.736 338.086 M349.267 368.359 C 350.050 371.367,350.711 374.092,350.736 374.414 C 350.761 374.736,326.589 375.000,297.020 375.000 L 243.258 375.000 241.832 372.070 C 241.048 370.459,239.944 367.644,239.379 365.815 L 238.353 362.489 293.098 362.690 L 347.842 362.891 349.267 368.359 " stroke="none" fill="#000000" fill-rule="evenodd"></path></g></svg>