<svg id="svg" xmlns="http://www.w3.org/2000/svg" xmlns:xlink="http://www.w3.org/1999/xlink" width="400" height="400" viewBox="0, 0, 400,400"><g id="svgg"><path id="path0" d="M148.828 0.522 C 6.843 17.964,-51.113 189.344,51.647 287.891 C 104.082 338.175,185.053 348.617,247.945 313.203 L 256.436 308.422 299.117 350.968 C 348.740 400.434,348.167 400.000,363.744 400.000 C 390.479 400.000,407.942 372.838,396.895 348.438 C 394.310 342.728,393.147 341.479,351.293 299.462 L 308.344 256.346 312.271 249.462 C 370.622 147.158,306.607 17.492,189.698 1.186 C 181.941 0.104,155.701 -0.322,148.828 0.522 M187.891 17.680 C 295.568 32.490,352.015 153.864,294.503 246.921 C 290.680 253.106,289.844 255.070,289.844 257.859 L 289.844 261.258 335.119 306.606 C 384.251 355.816,383.705 355.175,383.705 363.672 C 383.705 374.763,374.747 383.705,363.636 383.705 C 355.167 383.705,355.791 384.237,306.612 335.124 L 261.271 289.844 257.819 289.844 C 254.974 289.844,253.166 290.605,247.530 294.178 C 160.890 349.103,45.861 302.921,20.735 203.125 C -5.204 100.103,82.194 3.142,187.891 17.680 M158.091 45.306 C 151.977 47.773,152.639 58.062,159.048 60.177 C 164.528 61.986,169.531 58.422,169.531 52.711 C 169.531 46.532,163.971 42.933,158.091 45.306 M187.312 49.490 C 184.490 52.105,183.900 55.630,185.701 59.101 C 187.259 62.103,187.758 62.357,199.166 65.951 C 260.051 85.135,290.174 155.398,262.161 212.891 C 229.814 279.279,142.086 293.312,90.808 240.301 C 37.492 185.185,57.739 96.467,130.286 67.313 C 146.276 60.887,140.302 46.219,124.070 52.052 C 56.264 76.418,24.726 157.764,57.903 222.717 C 95.529 296.379,194.886 311.989,253.437 253.438 C 317.574 189.301,291.777 79.744,205.719 50.786 C 194.767 47.101,190.234 46.782,187.312 49.490 M119.844 119.844 C 114.093 125.595,114.623 126.487,137.405 149.414 L 155.066 167.188 136.532 185.742 C 115.191 207.108,113.429 210.396,120.755 215.196 C 126.266 218.807,128.428 217.390,149.212 196.536 L 166.784 178.906 184.369 196.378 C 206.905 218.770,208.366 219.639,214.002 214.002 C 219.639 208.366,218.770 206.905,196.378 184.369 L 178.906 166.784 196.536 149.212 C 217.390 128.428,218.807 126.266,215.196 120.755 C 210.396 113.429,207.108 115.191,185.742 136.532 L 167.188 155.066 149.414 137.405 C 126.487 114.623,125.595 114.093,119.844 119.844 " stroke="none" fill="#000000" fill-rule="evenodd"></path></g></svg>