<svg id="svg" xmlns="http://www.w3.org/2000/svg" xmlns:xlink="http://www.w3.org/1999/xlink" width="400" height="400" viewBox="0, 0, 400,400"><g id="svgg"><path id="path0" d="M62.335 151.174 C 25.104 160.515,12.144 208.275,39.434 235.566 C 63.105 259.237,104.083 253.172,119.339 223.739 C 139.468 184.905,104.634 140.562,62.335 151.174 M187.335 151.174 C 150.104 160.515,137.144 208.275,164.434 235.566 C 188.105 259.237,229.083 253.172,244.339 223.739 C 264.468 184.905,229.634 140.562,187.335 151.174 M312.335 151.174 C 275.104 160.515,262.144 208.275,289.434 235.566 C 313.105 259.237,354.083 253.172,369.339 223.739 C 389.468 184.905,354.634 140.562,312.335 151.174 M84.801 177.703 C 100.932 184.872,104.408 207.529,91.038 218.351 C 74.350 231.860,50.781 221.116,50.781 200.000 C 50.781 182.075,68.504 170.459,84.801 177.703 M209.801 177.703 C 225.932 184.872,229.408 207.529,216.038 218.351 C 199.350 231.860,175.781 221.116,175.781 200.000 C 175.781 182.075,193.504 170.459,209.801 177.703 M334.801 177.703 C 350.932 184.872,354.408 207.529,341.038 218.351 C 324.350 231.860,300.781 221.116,300.781 200.000 C 300.781 182.075,318.504 170.459,334.801 177.703 " stroke="none" fill="#000000" fill-rule="evenodd"></path></g></svg>